<svg id="svg8" height="512" viewBox="0 0 33.866666 33.866668" width="512" xmlns="http://www.w3.org/2000/svg" xmlns:svg="http://www.w3.org/2000/svg"><linearGradient id="linearGradient3363" gradientUnits="userSpaceOnUse" x1="-180.440378" x2="-180.440378" y1="97.375304" y2="99.607314"><stop id="stop2198" offset="0" stop-color="#f6f600"/><stop id="stop2200" offset="1" stop-color="#f69134"/></linearGradient><g id="layer1"><path id="path103116" d="m19.144922 28.411751a13.663413 13.663413 0 0 0 13.663412-13.663413 13.663413 13.663413 0 0 0 -13.663412-13.6634134 13.663413 13.663413 0 0 0 -13.6634124 13.6634134 13.663413 13.663413 0 0 0 13.6634124 13.663413z" fill="#a8d0ff" paint-order="fill markers stroke"/><path id="path103113" d="m14.721745 5.4815086a13.663413 13.663413 0 0 1 13.663413 13.6634134 13.663413 13.663413 0 0 1 -13.663413 13.663412 13.663413 13.663413 0 0 1 -13.6634124-13.663412 13.663413 13.663413 0 0 1 13.6634124-13.6634134z" fill="#00a1ff" paint-order="fill markers stroke"/><path id="path4309-0-1-8-05" d="m19.937605 12.638731-7.191092 5.310385-3.3280881-1.447602c-2.1293773-1.088883-4.062662.67362-2.8221474 2.822148l3.7970565 5.677803c1.039084 1.456161 3.526295 1.538299 4.702814 0l7.660061-9.540627c1.518363-2.055938-.874466-4.291719-2.818604-2.822107z" fill="#fff" font-variant-ligatures="normal" font-variant-position="normal" font-variant-caps="normal" font-variant-numeric="normal" font-variant-alternates="normal" font-variant-east-asian="normal" font-feature-settings="normal" font-variation-settings="normal" text-indent="0" text-align="start" text-decoration-line="none" text-decoration-style="solid" text-decoration-color="#000000" text-transform="none" text-orientation="mixed" white-space="normal" shape-padding="0" shape-margin="0" inline-size="0" isolation="auto" mix-blend-mode="normal" solid-color="#000000" solid-opacity="1" vector-effect="none" paint-order="markers fill stroke"/></g></svg>