<?xml version="1.0" encoding="iso-8859-1"?>
<!-- Generator: Adobe Illustrator 27.2.0, SVG Export Plug-In . SVG Version: 6.00 Build 0)  -->
<svg version="1.1" id="Capa_1" xmlns="http://www.w3.org/2000/svg" xmlns:xlink="http://www.w3.org/1999/xlink" x="0px" y="0px"
	 viewBox="0 0 503.95 503.95" style="enable-background:new 0 0 503.95 503.95;" xml:space="preserve">
<g>
	<g>
		<path d="M251.975,127.975c-6.075,0-11-4.925-11-11v-30c0-6.075,4.925-11,11-11s11,4.925,11,11v30
			C262.975,123.05,258.05,127.975,251.975,127.975z"/>
	</g>
	<g>
		<path d="M167.122,132.932c-2.876,0-5.754-1.008-7.778-3.032l-21.214-21.213c-4.296-4.296-4.296-11.261,0-15.556
			c4.295-4.296,11.26-4.296,15.557,0l21.214,21.213c4.295,4.295,4.296,11.259,0.002,15.555
			C172.883,131.918,170.003,132.932,167.122,132.932z"/>
	</g>
	<g>
		<path d="M336.827,133.008c-2.829,0.006-5.675-1.006-7.777-3.108c-4.296-4.296-4.296-11.261,0-15.556l21.214-21.213
			c4.296-4.296,11.261-4.295,15.557,0c4.296,4.296,4.296,11.261,0,15.556c0,0-21.14,21.14-21.214,21.213
			C342.566,131.94,339.705,133.002,336.827,133.008z"/>
	</g>
	<g>
		<g>
			<path style="fill:#33CCCC;" d="M489.215,174.475c-17.39-14.45-43.28-12.09-57.73,5.25l-122.26,146.52l-39.97-39.97l44.21-53.05
				c14.47-17.37,12.12-43.28-5.25-57.75c-17.39-14.45-43.28-12.09-57.73,5.25l-121.27,145.51l-59.25-59.25
				c-15.99-15.98-41.99-15.98-57.98,0c-15.98,15.99-15.98,41.99,0,57.98l91,91c7.75,7.74,18.04,12.01,28.99,12.01
				c0.57,0,1.14-0.02,1.72-0.03c0.04-0.01,0.09-0.01,0.14-0.01c11.48-0.52,22.28-5.88,29.63-14.71l53.08-63.7l66.44,66.44
				c7.75,7.74,18.04,12.01,28.99,12.01c0.57,0,1.14-0.02,1.72-0.04h0.14c11.48-0.52,22.28-5.88,29.63-14.71l151-181
				C508.935,214.855,506.585,188.945,489.215,174.475z M146.565,399.145c-3.39,4.07-8.37,6.55-13.66,6.81
				c-0.31,0.01-0.62,0.02-0.93,0.02c-5.07,0-9.84-1.98-13.43-5.57c0,0-90.915-90.915-91-91c-7.321-7.321-7.305-19.555,0-26.86
				c7.304-7.324,19.566-7.314,26.86,0l67.77,67.76c2.19,2.19,5.19,3.36,8.28,3.22c3.08-0.14,5.97-1.58,7.95-3.95l128.98-154.76
				c6.69-8.04,18.7-9.13,26.75-2.43s9.14,18.7,2.43,26.75L146.565,399.145z M477.575,218.135l-151.01,181.01
				c-3.39,4.07-8.37,6.55-13.66,6.81c-0.31,0.01-0.62,0.02-0.93,0.02c-5.07,0-9.84-1.98-13.43-5.57l-67.86-67.85l24.43-29.31
				l47.06,47.06c2.18,2.19,5.18,3.36,8.27,3.22c3.09-0.14,5.98-1.57,7.95-3.95l129.99-155.76c6.69-8.04,18.699-9.13,26.749-2.431
				C483.022,197.948,484.096,210.286,477.575,218.135z"/>
		</g>
	</g>
</g>
<g>
</g>
<g>
</g>
<g>
</g>
<g>
</g>
<g>
</g>
<g>
</g>
<g>
</g>
<g>
</g>
<g>
</g>
<g>
</g>
<g>
</g>
<g>
</g>
<g>
</g>
<g>
</g>
<g>
</g>
</svg>
